<svg id="Ñëîé_1" data-name="Ñëîé 1" xmlns="http://www.w3.org/2000/svg" viewBox="0 0 416.61 398.34"><defs><style>.cls-1{fill:#b2d3ea;}.cls-2{fill:#173d7a;}.cls-3{fill:#396caa;}.cls-4{fill:#274f89;}.cls-5{fill:#d4ecff;}.cls-6{fill:#fff;}.cls-7{fill:#5793ce;}.cls-8{fill:#6614cf;}.cls-9{fill:#fdd762;}.cls-10{fill:#ffc2b0;}.cls-11{fill:#8a2ae3;}.cls-12{fill:#983be9;}.cls-13{fill:#ea9c92;}.cls-14{fill:#b45ef4;}.cls-15{fill:#d8892b;}.cls-16{fill:#d29fff;}.cls-17{fill:#e8a200;}.cls-18{fill:#ff2c9c;}.cls-19{fill:#721bd5;}.cls-20{fill:#7e23dc;}</style></defs><title>theImg</title><path class="cls-1" d="M139.93,165.53l-23-13.37c-1.94-1.12-1.7-3.08.54-4.37L139.4,135c2.24-1.29,5.63-1.43,7.57-.31l23,13.37c1.94,1.12,1.7,3.08-.54,4.37L147.5,165.21C145.26,166.51,141.87,166.65,139.93,165.53Z" transform="translate(-10.54 -1.66)"/><path class="cls-2" d="M178.78,122.66h0v-5.85l-31.07,0h.21c-2.46-1.42-6.77-1.24-9.62.4l.92-.38-31.1,0V123a2.79,2.79,0,0,0,1.65,2.58l29.21,17c2.46,1.42,6.77,1.24,9.62-.4L176.44,126C178.08,125,178.87,123.8,178.78,122.66Z" transform="translate(-10.54 -1.66)"/><path class="cls-3" d="M143.46,115.83a11.09,11.09,0,0,0-5.15,1.35l.92-.38-31.1,0V123a2.79,2.79,0,0,0,1.65,2.58l29.21,17a8.71,8.71,0,0,0,4.46,1Z" transform="translate(-10.54 -1.66)"/><path class="cls-1" d="M111.64,116.78h-3.52V123a2.79,2.79,0,0,0,1.65,2.58l1.87,1.08Z" transform="translate(-10.54 -1.66)"/><path class="cls-4" d="M139.6,142.9a11,11,0,0,0,7.69-.09v-8.18H139.6Z" transform="translate(-10.54 -1.66)"/><path class="cls-5" d="M139,136.4l-29.21-17c-2.46-1.42-2.16-3.91.69-5.55L138.3,97.64c2.85-1.64,7.15-1.82,9.62-.4l29.21,17c2.46,1.42,2.16,3.91-.69,5.55L148.6,136C145.75,137.65,141.45,137.83,139,136.4Z" transform="translate(-10.54 -1.66)"/><path class="cls-6" d="M144.64,113.59l-8.59-5a1.27,1.27,0,0,1,0-2.4,4.6,4.6,0,0,1,4.16,0l8.59,5a1.27,1.27,0,0,1,0,2.4A4.6,4.6,0,0,1,144.64,113.59Z" transform="translate(-10.54 -1.66)"/><path class="cls-6" d="M157.13,120.89l-5.21-3.08a1.27,1.27,0,0,1,0-2.4,4.6,4.6,0,0,1,4.16,0l5.21,3.08a1.27,1.27,0,0,1,0,2.4A4.6,4.6,0,0,1,157.13,120.89Z" transform="translate(-10.54 -1.66)"/><path class="cls-6" d="M132.6,116.66l-5.21-3.08a1.27,1.27,0,0,1,0-2.4,4.6,4.6,0,0,1,4.16,0l5.21,3.08a1.27,1.27,0,0,1,0,2.4A4.6,4.6,0,0,1,132.6,116.66Z" transform="translate(-10.54 -1.66)"/><path class="cls-1" d="M376.39,294.29l-163-94.11c-4.61-2.66-12.67-2.33-18,.75L84.4,265c-5.32,3.07-5.9,7.72-1.29,10.39l56,32.35A29.84,29.84,0,0,0,127,311.27c-8.54,4.93-8.54,12.92,0,17.85s22.38,4.93,30.92,0c3.43-2,5.45-4.45,6.13-7l13.24,7.65a27.35,27.35,0,0,0-7.57,2.87c-8.71,5-8.71,13.18,0,18.21s22.83,5,31.55,0a15,15,0,0,0,5-4.37l39.89,23c4.61,2.66,12.67,2.33,18-.75l111-64.06C380.42,301.6,381,297,376.39,294.29Z" transform="translate(-10.54 -1.66)"/><path class="cls-2" d="M420.6,100.73l-169.76-98A6.85,6.85,0,0,0,245.09,2V2l-.31.12-.08,0-6.13,2.35,5.51,2.7c0,.1-.06.2-.08.3L216.36,133.35c-1.38,6.3,1.39,13.65,6.19,16.43l165.68,95.66-.59,7,6.71-2.6c2.25-1.05,4.06-3.44,4.8-6.83l27.65-125.87C428.18,110.85,425.4,103.5,420.6,100.73Z" transform="translate(-10.54 -1.66)"/><path class="cls-3" d="M420.6,100.73l-169.76-98A6.85,6.85,0,0,0,245.09,2V2l-.31.12-.08,0-6.13,2.35,5.51,2.7c0,.1-.06.2-.08.3l-18.22,83,83.06,64.71L426,107.49A13.18,13.18,0,0,0,420.6,100.73Z" transform="translate(-10.54 -1.66)"/><path class="cls-4" d="M414.2,120.07l12.92-5.5c.24-5-1.83-10.18-5.24-12.94l-20.46,8.6Z" transform="translate(-10.54 -1.66)"/><path class="cls-5" d="M381.74,251.78,212,153.77c-4.8-2.77-7.57-10.13-6.19-16.43L233.44,11.47c1.38-6.3,6.4-9.16,11.2-6.39l169.76,98c4.8,2.77,7.57,10.13,6.19,16.43L392.94,245.4C391.55,251.7,386.54,254.55,381.74,251.78Z" transform="translate(-10.54 -1.66)"/><path class="cls-6" d="M378.06,242.42,218.4,150.29c-4.39-2.54-6.93-9.27-5.66-15L238,20.07c1.27-5.76,5.86-8.38,10.25-5.84l159.66,92.13c4.39,2.54,6.93,9.27,5.66,15l-25.3,115.18C387,242.34,382.45,245,378.06,242.42Z" transform="translate(-10.54 -1.66)"/><path class="cls-6" d="M378.06,242.42,218.4,150.29c-4.39-2.54-6.93-9.27-5.66-15L238,20.07c1.27-5.76,5.86-8.38,10.25-5.84l159.66,92.13c4.39,2.54,6.93,9.27,5.66,15l-25.3,115.18C387,242.34,382.45,245,378.06,242.42Z" transform="translate(-10.54 -1.66)"/><path class="cls-2" d="M384.08,256,360.87,253,211.08,166.5c-4.8-2.77-13.19-2.42-18.74.78L86.2,228.54l-14-1.85v8h0c-.09,1.84,1,3.61,3.22,4.92l169.76,98c4.8,2.77,13.19,2.42,18.74-.78l115.6-66.72c3.12-1.8,4.67-4.12,4.58-6.3h0Z" transform="translate(-10.54 -1.66)"/><path class="cls-3" d="M271.53,201.4l-10.64-6.14h-117L86.2,228.54l-14-1.85v8h0c-.09,1.84,1,3.61,3.22,4.92l169.76,98a17.57,17.57,0,0,0,9.67,1.81Z" transform="translate(-10.54 -1.66)"/><path class="cls-7" d="M78.39,227.51l-6.23-.82v8h0c-.09,1.84,1,3.61,3.22,4.92l3,1.73Z" transform="translate(-10.54 -1.66)"/><path class="cls-4" d="M246.87,338.37c4.55,1.73,11.06,1.35,15.92-1V319.63H246.87Z" transform="translate(-10.54 -1.66)"/><path class="cls-5" d="M245.16,329.63l-169.76-98c-4.8-2.77-4.2-7.62,1.35-10.82l115.6-66.72c5.55-3.2,13.93-3.55,18.74-.78l169.76,98c4.8,2.77,4.2,7.62-1.35,10.82L263.9,328.85C258.36,332.05,250,332.4,245.16,329.63Z" transform="translate(-10.54 -1.66)"/><path class="cls-2" d="M147.6,199.17l-7.68-4.43c-.62-.36-.54-1,.17-1.39l9.07-5.23a2.67,2.67,0,0,1,2.41-.1l7.68,4.43c.62.36.54,1-.17,1.39L150,199.07A2.67,2.67,0,0,1,147.6,199.17Z" transform="translate(-10.54 -1.66)"/><path class="cls-2" d="M159.47,206l-7.68-4.43c-.62-.36-.54-1,.17-1.39L161,195a2.67,2.67,0,0,1,2.41-.1l7.68,4.43c.62.36.54,1-.17,1.39l-9.07,5.23A2.67,2.67,0,0,1,159.47,206Z" transform="translate(-10.54 -1.66)"/><path class="cls-2" d="M171.33,212.86l-7.68-4.43c-.62-.36-.54-1,.17-1.39l9.07-5.23a2.67,2.67,0,0,1,2.41-.1l7.68,4.43c.62.36.54,1-.17,1.39l-9.07,5.23A2.67,2.67,0,0,1,171.33,212.86Z" transform="translate(-10.54 -1.66)"/><path class="cls-2" d="M187.73,207.21l-7.68-4.43c-.62-.36-.54-1,.17-1.39l7.61-4.39a2.67,2.67,0,0,1,2.41-.1l7.68,4.43c.62.36.54,1-.17,1.39l-7.61,4.39A2.67,2.67,0,0,1,187.73,207.21Z" transform="translate(-10.54 -1.66)"/><path class="cls-2" d="M199.6,214.06l-7.68-4.43c-.62-.36-.54-1,.17-1.39l7.61-4.39a2.67,2.67,0,0,1,2.41-.1l7.68,4.43c.62.36.54,1-.17,1.39L202,214A2.67,2.67,0,0,1,199.6,214.06Z" transform="translate(-10.54 -1.66)"/><path class="cls-2" d="M211.46,220.9l-7.68-4.43c-.62-.36-.54-1,.17-1.39l7.61-4.39a2.67,2.67,0,0,1,2.41-.1l7.68,4.43c.62.36.54,1-.17,1.39l-7.61,4.39A2.67,2.67,0,0,1,211.46,220.9Z" transform="translate(-10.54 -1.66)"/><path class="cls-2" d="M223.32,227.75l-7.68-4.43c-.62-.36-.54-1,.17-1.39l7.61-4.39a2.67,2.67,0,0,1,2.41-.1l7.68,4.43c.62.36.54,1-.17,1.39l-7.61,4.39A2.67,2.67,0,0,1,223.32,227.75Z" transform="translate(-10.54 -1.66)"/><path class="cls-2" d="M235.18,234.6l-7.68-4.43c-.62-.36-.54-1,.17-1.39l7.61-4.39a2.67,2.67,0,0,1,2.41-.1l7.68,4.43c.62.36.54,1-.17,1.39l-7.61,4.39A2.67,2.67,0,0,1,235.18,234.6Z" transform="translate(-10.54 -1.66)"/><path class="cls-2" d="M247,241.45,239.36,237c-.62-.36-.54-1,.17-1.39l7.61-4.39a2.67,2.67,0,0,1,2.41-.1l7.68,4.43c.62.36.54,1-.17,1.39l-7.61,4.39A2.67,2.67,0,0,1,247,241.45Z" transform="translate(-10.54 -1.66)"/><path class="cls-2" d="M258.91,248.3l-7.68-4.43c-.62-.36-.54-1,.17-1.39l7.61-4.39a2.67,2.67,0,0,1,2.41-.1l7.68,4.43c.62.36.54,1-.17,1.39l-7.61,4.39A2.67,2.67,0,0,1,258.91,248.3Z" transform="translate(-10.54 -1.66)"/><path class="cls-2" d="M270.77,255.15l-7.68-4.43c-.62-.36-.54-1,.17-1.39l7.61-4.39a2.67,2.67,0,0,1,2.41-.1l7.68,4.43c.62.36.54,1-.17,1.39L273.17,255A2.67,2.67,0,0,1,270.77,255.15Z" transform="translate(-10.54 -1.66)"/><path class="cls-2" d="M282.63,262l-7.68-4.43c-.62-.36-.54-1,.17-1.39l7.61-4.39a2.67,2.67,0,0,1,2.41-.1l7.68,4.43c.62.36.54,1-.17,1.39L285,261.9A2.67,2.67,0,0,1,282.63,262Z" transform="translate(-10.54 -1.66)"/><path class="cls-2" d="M294.49,268.84l-7.68-4.43c-.62-.36-.54-1,.17-1.39l7.61-4.39a2.67,2.67,0,0,1,2.41-.1l7.68,4.43c.62.36.54,1-.17,1.39l-7.61,4.39A2.67,2.67,0,0,1,294.49,268.84Z" transform="translate(-10.54 -1.66)"/><path class="cls-3" d="M205.21,204l-7.68-4.43c-.62-.36-.54-1,.17-1.39l7.61-4.39a2.67,2.67,0,0,1,2.41-.1l7.68,4.43c.62.36.54,1-.17,1.39l-7.61,4.39A2.67,2.67,0,0,1,205.21,204Z" transform="translate(-10.54 -1.66)"/><path class="cls-3" d="M193.17,197l-7.68-4.43c-.62-.36-.54-1,.17-1.39l7.61-4.39a2.67,2.67,0,0,1,2.41-.1l7.68,4.43c.62.36.54,1-.17,1.39l-7.61,4.39A2.67,2.67,0,0,1,193.17,197Z" transform="translate(-10.54 -1.66)"/><path class="cls-2" d="M181.11,190.05l-16.54-9.55c-.62-.36-.54-1,.17-1.39l7.61-4.39a2.67,2.67,0,0,1,2.41-.1l16.54,9.55c.62.36.54,1-.17,1.39L183.52,190A2.67,2.67,0,0,1,181.11,190.05Z" transform="translate(-10.54 -1.66)"/><path class="cls-2" d="M189.54,181.59l-13.43-7.75c-.62-.36-.54-1,.17-1.39l7.61-4.39a2.67,2.67,0,0,1,2.41-.1l13.43,7.75c.62.36.54,1-.17,1.39l-7.61,4.39A2.67,2.67,0,0,1,189.54,181.59Z" transform="translate(-10.54 -1.66)"/><path class="cls-3" d="M217.07,210.81l-7.68-4.43c-.62-.36-.54-1,.17-1.39l7.61-4.39a2.67,2.67,0,0,1,2.41-.1l7.68,4.43c.62.36.54,1-.17,1.39l-7.61,4.39A2.67,2.67,0,0,1,217.07,210.81Z" transform="translate(-10.54 -1.66)"/><path class="cls-2" d="M228.94,217.66l-7.68-4.43c-.62-.36-.54-1,.17-1.39l7.61-4.39a2.67,2.67,0,0,1,2.41-.1l7.68,4.43c.62.36.54,1-.17,1.39l-7.61,4.39A2.67,2.67,0,0,1,228.94,217.66Z" transform="translate(-10.54 -1.66)"/><path class="cls-2" d="M240.8,224.51l-7.68-4.43c-.62-.36-.54-1,.17-1.39l7.61-4.39a2.67,2.67,0,0,1,2.41-.1l7.68,4.43c.62.36.54,1-.17,1.39l-7.61,4.39A2.67,2.67,0,0,1,240.8,224.51Z" transform="translate(-10.54 -1.66)"/><path class="cls-2" d="M252.66,231.36,245,226.92c-.62-.36-.54-1,.17-1.39l7.61-4.39a2.67,2.67,0,0,1,2.41-.1l7.68,4.43c.62.36.54,1-.17,1.39l-7.61,4.39A2.67,2.67,0,0,1,252.66,231.36Z" transform="translate(-10.54 -1.66)"/><path class="cls-2" d="M264.52,238.21l-7.68-4.43c-.62-.36-.54-1,.17-1.39l7.61-4.39a2.67,2.67,0,0,1,2.41-.1l7.68,4.43c.62.36.54,1-.17,1.39l-7.61,4.39A2.67,2.67,0,0,1,264.52,238.21Z" transform="translate(-10.54 -1.66)"/><path class="cls-2" d="M276.38,245.06l-7.68-4.43c-.62-.36-.54-1,.17-1.39l7.61-4.39a2.67,2.67,0,0,1,2.41-.1l7.68,4.43c.62.36.54,1-.17,1.39L278.79,245A2.67,2.67,0,0,1,276.38,245.06Z" transform="translate(-10.54 -1.66)"/><path class="cls-2" d="M288.24,251.9l-7.68-4.43c-.62-.36-.54-1,.17-1.39l7.61-4.39a2.67,2.67,0,0,1,2.41-.1l7.68,4.43c.62.36.54,1-.17,1.39l-7.61,4.39A2.67,2.67,0,0,1,288.24,251.9Z" transform="translate(-10.54 -1.66)"/><path class="cls-2" d="M300.11,258.75l-7.68-4.43c-.62-.36-.54-1,.17-1.39l7.61-4.39a2.67,2.67,0,0,1,2.41-.1l7.68,4.43c.62.36.54,1-.17,1.39l-7.61,4.39A2.67,2.67,0,0,1,300.11,258.75Z" transform="translate(-10.54 -1.66)"/><path class="cls-2" d="M312,265.6l-7.68-4.43c-.62-.36-.54-1,.17-1.39l7.61-4.39a2.67,2.67,0,0,1,2.41-.1l7.68,4.43c.62.36.54,1-.17,1.39l-7.61,4.39A2.67,2.67,0,0,1,312,265.6Z" transform="translate(-10.54 -1.66)"/><path class="cls-2" d="M333.06,277.78,316.3,268.1c-.62-.36-.54-1,.17-1.39l7.61-4.39a2.67,2.67,0,0,1,2.41-.1l16.76,9.68c.62.36.54,1-.17,1.39l-7.61,4.39A2.67,2.67,0,0,1,333.06,277.78Z" transform="translate(-10.54 -1.66)"/><path class="cls-2" d="M356.15,264.44,342,256.28c-.62-.36-.54-1,.17-1.39l7.61-4.39a2.67,2.67,0,0,1,2.41-.1l14.15,8.17c.62.36.54,1-.17,1.39l-7.61,4.39A2.67,2.67,0,0,1,356.15,264.44Z" transform="translate(-10.54 -1.66)"/><path class="cls-2" d="M237.85,209.47,230.17,205c-.62-.36-.54-1,.17-1.39l7.61-4.39a2.67,2.67,0,0,1,2.41-.1l7.68,4.43c.62.36.54,1-.17,1.39l-7.61,4.39A2.67,2.67,0,0,1,237.85,209.47Z" transform="translate(-10.54 -1.66)"/><path class="cls-2" d="M225.69,202.45,218,198c-.62-.36-.54-1,.17-1.39l7.61-4.39a2.67,2.67,0,0,1,2.41-.1l7.68,4.43c.62.36.54,1-.17,1.39l-7.61,4.39A2.67,2.67,0,0,1,225.69,202.45Z" transform="translate(-10.54 -1.66)"/><path class="cls-3" d="M213.53,195.44,205.85,191c-.62-.36-.54-1,.17-1.39l7.61-4.39a2.67,2.67,0,0,1,2.41-.1l7.68,4.43c.62.36.54,1-.17,1.39l-7.61,4.39A2.67,2.67,0,0,1,213.53,195.44Z" transform="translate(-10.54 -1.66)"/><path class="cls-2" d="M201.38,188.42,193.69,184c-.62-.36-.54-1,.17-1.39l7.61-4.39a2.67,2.67,0,0,1,2.41-.1l7.68,4.43c.62.36.54,1-.17,1.39l-7.61,4.39A2.67,2.67,0,0,1,201.38,188.42Z" transform="translate(-10.54 -1.66)"/><path class="cls-2" d="M249.71,216.32,242,211.89c-.62-.36-.54-1,.17-1.39l7.61-4.39a2.67,2.67,0,0,1,2.41-.1l7.68,4.43c.62.36.54,1-.17,1.39l-7.61,4.39A2.67,2.67,0,0,1,249.71,216.32Z" transform="translate(-10.54 -1.66)"/><path class="cls-2" d="M261.57,223.17l-7.68-4.43c-.62-.36-.54-1,.17-1.39l7.61-4.39a2.67,2.67,0,0,1,2.41-.1l7.68,4.43c.62.36.54,1-.17,1.39L264,223.07A2.67,2.67,0,0,1,261.57,223.17Z" transform="translate(-10.54 -1.66)"/><path class="cls-2" d="M273.43,230l-7.68-4.43c-.62-.36-.54-1,.17-1.39l7.61-4.39a2.67,2.67,0,0,1,2.41-.1l7.68,4.43c.62.36.54,1-.17,1.39l-7.61,4.39A2.67,2.67,0,0,1,273.43,230Z" transform="translate(-10.54 -1.66)"/><path class="cls-2" d="M285.29,236.87l-7.68-4.43c-.62-.36-.54-1,.17-1.39l7.61-4.39a2.67,2.67,0,0,1,2.41-.1l7.68,4.43c.62.36.54,1-.17,1.39l-7.61,4.39A2.67,2.67,0,0,1,285.29,236.87Z" transform="translate(-10.54 -1.66)"/><path class="cls-2" d="M297.16,243.72l-7.68-4.43c-.62-.36-.54-1,.17-1.39l7.61-4.39a2.67,2.67,0,0,1,2.41-.1l7.68,4.43c.62.36.54,1-.17,1.39l-7.61,4.39A2.67,2.67,0,0,1,297.16,243.72Z" transform="translate(-10.54 -1.66)"/><path class="cls-2" d="M309,250.56l-7.68-4.43c-.62-.36-.54-1,.17-1.39l7.61-4.39a2.67,2.67,0,0,1,2.41-.1l7.68,4.43c.62.36.54,1-.17,1.39l-7.61,4.39A2.67,2.67,0,0,1,309,250.56Z" transform="translate(-10.54 -1.66)"/><path class="cls-2" d="M320.88,257.41,313.2,253c-.62-.36-.54-1,.17-1.39L321,247.2a2.67,2.67,0,0,1,2.41-.1l7.68,4.43c.62.36.54,1-.17,1.39l-7.61,4.39A2.67,2.67,0,0,1,320.88,257.41Z" transform="translate(-10.54 -1.66)"/><path class="cls-2" d="M332.74,264.26l-7.68-4.43c-.62-.36-.54-1,.17-1.39l7.61-4.39a2.67,2.67,0,0,1,2.41-.1l7.68,4.43c.62.36.54,1-.17,1.39l-7.61,4.39A2.67,2.67,0,0,1,332.74,264.26Z" transform="translate(-10.54 -1.66)"/><path class="cls-2" d="M344.6,271.11l-7.68-4.43c-.62-.36-.54-1,.17-1.39l7.61-4.39a2.67,2.67,0,0,1,2.41-.1l7.68,4.43c.62.36.54,1-.17,1.39L347,271A2.67,2.67,0,0,1,344.6,271.11Z" transform="translate(-10.54 -1.66)"/><path class="cls-2" d="M231.6,192.53l-7.68-4.43c-.62-.36-.54-1,.17-1.39l7.61-4.39a2.67,2.67,0,0,1,2.41-.1l7.68,4.43c.62.36.54,1-.17,1.39L234,192.43A2.67,2.67,0,0,1,231.6,192.53Z" transform="translate(-10.54 -1.66)"/><path class="cls-2" d="M219.8,185.72l-7.68-4.43c-.62-.36-.54-1,.17-1.39l7.61-4.39a2.67,2.67,0,0,1,2.41-.1l7.68,4.43c.62.36.54,1-.17,1.39l-7.61,4.39A2.67,2.67,0,0,1,219.8,185.72Z" transform="translate(-10.54 -1.66)"/><path class="cls-2" d="M208,178.91l-7.68-4.43c-.62-.36-.54-1,.17-1.39l7.61-4.39a2.67,2.67,0,0,1,2.41-.1l7.68,4.43c.62.36.54,1-.17,1.39l-7.61,4.39A2.67,2.67,0,0,1,208,178.91Z" transform="translate(-10.54 -1.66)"/><path class="cls-2" d="M196.19,172.09l-7.68-4.43c-.62-.36-.54-1,.17-1.39l7.61-4.39a2.67,2.67,0,0,1,2.41-.1l7.68,4.43c.62.36.54,1-.17,1.39L198.6,172A2.67,2.67,0,0,1,196.19,172.09Z" transform="translate(-10.54 -1.66)"/><path class="cls-2" d="M208.33,165.08l-7.68-4.43c-.62-.36-.54-1,.17-1.39l2.52-1.45a2.67,2.67,0,0,1,2.41-.1l7.68,4.43c.62.36.54,1-.17,1.39L210.73,165A2.67,2.67,0,0,1,208.33,165.08Z" transform="translate(-10.54 -1.66)"/><path class="cls-2" d="M223.73,174l-7.68-4.43c-.62-.36-.54-1,.17-1.39l2.52-1.45a2.67,2.67,0,0,1,2.41-.1l7.68,4.43c.62.36.54,1-.17,1.39l-2.52,1.45A2.67,2.67,0,0,1,223.73,174Z" transform="translate(-10.54 -1.66)"/><path class="cls-2" d="M235.49,180.76l-7.68-4.43c-.62-.36-.54-1,.17-1.39l2.52-1.45a2.67,2.67,0,0,1,2.41-.1l7.68,4.43c.62.36.54,1-.17,1.39l-2.52,1.45A2.67,2.67,0,0,1,235.49,180.76Z" transform="translate(-10.54 -1.66)"/><path class="cls-2" d="M247.24,187.55l-7.68-4.43c-.62-.36-.54-1,.17-1.39l2.52-1.45a2.67,2.67,0,0,1,2.41-.1l7.68,4.43c.62.36.54,1-.17,1.39l-2.52,1.45A2.67,2.67,0,0,1,247.24,187.55Z" transform="translate(-10.54 -1.66)"/><path class="cls-2" d="M259,194.33l-7.68-4.43c-.62-.36-.54-1,.17-1.39l2.52-1.45a2.67,2.67,0,0,1,2.41-.1l7.68,4.43c.62.36.54,1-.17,1.39l-2.52,1.45A2.67,2.67,0,0,1,259,194.33Z" transform="translate(-10.54 -1.66)"/><path class="cls-2" d="M324.61,232.22l-7.68-4.43c-.62-.36-.54-1,.17-1.39l2.52-1.45a2.67,2.67,0,0,1,2.41-.1l7.68,4.43c.62.36.54,1-.17,1.39L327,232.12A2.67,2.67,0,0,1,324.61,232.22Z" transform="translate(-10.54 -1.66)"/><path class="cls-2" d="M336.37,239l-7.68-4.43c-.62-.36-.54-1,.17-1.39l2.52-1.45a2.67,2.67,0,0,1,2.41-.1l7.68,4.43c.62.36.54,1-.17,1.39l-2.52,1.45A2.67,2.67,0,0,1,336.37,239Z" transform="translate(-10.54 -1.66)"/><path class="cls-2" d="M348.12,245.79l-7.68-4.43c-.62-.36-.54-1,.17-1.39l2.52-1.45a2.67,2.67,0,0,1,2.41-.1l7.68,4.43c.62.36.54,1-.17,1.39l-2.52,1.45A2.67,2.67,0,0,1,348.12,245.79Z" transform="translate(-10.54 -1.66)"/><path class="cls-2" d="M359.87,252.58l-7.68-4.43c-.62-.36-.54-1,.17-1.39l2.52-1.45a2.67,2.67,0,0,1,2.41-.1l7.68,4.43c.62.36.54,1-.17,1.39l-2.52,1.45A2.67,2.67,0,0,1,359.87,252.58Z" transform="translate(-10.54 -1.66)"/><path class="cls-2" d="M243.46,199.38l-7.68-4.43c-.62-.36-.54-1,.17-1.39l7.61-4.39a2.67,2.67,0,0,1,2.41-.1l7.68,4.43c.62.36.54,1-.17,1.39l-7.61,4.39A2.67,2.67,0,0,1,243.46,199.38Z" transform="translate(-10.54 -1.66)"/><path class="cls-2" d="M255.32,206.23l-7.68-4.43c-.62-.36-.54-1,.17-1.39l7.61-4.39a2.67,2.67,0,0,1,2.41-.1l7.68,4.43c.62.36.54,1-.17,1.39l-7.61,4.39A2.67,2.67,0,0,1,255.32,206.23Z" transform="translate(-10.54 -1.66)"/><path class="cls-2" d="M267.19,213.08l-7.68-4.43c-.62-.36-.54-1,.17-1.39l7.61-4.39a2.67,2.67,0,0,1,2.41-.1l7.68,4.43c.62.36.54,1-.17,1.39L269.59,213A2.67,2.67,0,0,1,267.19,213.08Z" transform="translate(-10.54 -1.66)"/><path class="cls-2" d="M279,219.93l-7.68-4.43c-.62-.36-.54-1,.17-1.39l7.61-4.39a2.67,2.67,0,0,1,2.41-.1l7.68,4.43c.62.36.54,1-.17,1.39l-7.61,4.39A2.67,2.67,0,0,1,279,219.93Z" transform="translate(-10.54 -1.66)"/><path class="cls-2" d="M290.91,226.78l-7.68-4.43c-.62-.36-.54-1,.17-1.39l7.61-4.39a2.67,2.67,0,0,1,2.41-.1l7.68,4.43c.62.36.54,1-.17,1.39l-7.61,4.39A2.67,2.67,0,0,1,290.91,226.78Z" transform="translate(-10.54 -1.66)"/><path class="cls-2" d="M302.77,233.63l-7.68-4.43c-.62-.36-.54-1,.17-1.39l7.61-4.39a2.67,2.67,0,0,1,2.41-.1l7.68,4.43c.62.36.54,1-.17,1.39l-7.61,4.39A2.67,2.67,0,0,1,302.77,233.63Z" transform="translate(-10.54 -1.66)"/><path class="cls-2" d="M314.63,240.47,307,236c-.62-.36-.54-1,.17-1.39l7.61-4.39a2.67,2.67,0,0,1,2.41-.1l7.68,4.43c.62.36.54,1-.17,1.39L317,240.37A2.67,2.67,0,0,1,314.63,240.47Z" transform="translate(-10.54 -1.66)"/><path class="cls-2" d="M326.5,247.32l-7.68-4.43c-.62-.36-.54-1,.17-1.39l7.61-4.39A2.67,2.67,0,0,1,329,237l7.68,4.43c.62.36.54,1-.17,1.39l-7.61,4.39A2.67,2.67,0,0,1,326.5,247.32Z" transform="translate(-10.54 -1.66)"/><path class="cls-2" d="M338.36,254.17l-7.68-4.43c-.62-.36-.54-1,.17-1.39l7.61-4.39a2.67,2.67,0,0,1,2.41-.1l7.68,4.43c.62.36.54,1-.17,1.39l-7.61,4.39A2.67,2.67,0,0,1,338.36,254.17Z" transform="translate(-10.54 -1.66)"/><path class="cls-2" d="M175.65,200.23,153,187.17c-.62-.36-.54-1,.17-1.39l7.61-4.39a2.67,2.67,0,0,1,2.41-.1l22.62,13.06c.62.36.54,1-.17,1.39l-7.61,4.39A2.67,2.67,0,0,1,175.65,200.23Z" transform="translate(-10.54 -1.66)"/><path class="cls-2" d="M321.37,284.36,298.75,271.3c-.62-.36-.54-1,.17-1.39l7.61-4.39a2.67,2.67,0,0,1,2.41-.1l22.62,13.06c.62.36.54,1-.17,1.39l-7.61,4.39A2.67,2.67,0,0,1,321.37,284.36Z" transform="translate(-10.54 -1.66)"/><path class="cls-2" d="M273.93,272.1l-7.68-4.43c-.62-.36-.54-1,.17-1.39l9.07-5.23a2.67,2.67,0,0,1,2.41-.1l7.68,4.43c.62.36.54,1-.17,1.39L276.34,272A2.67,2.67,0,0,1,273.93,272.1Z" transform="translate(-10.54 -1.66)"/><path class="cls-2" d="M187.79,222.37l-12.28-7.09c-.62-.36-.54-1,.17-1.39l9.07-5.23a2.67,2.67,0,0,1,2.41-.1l12.28,7.09c.62.36.54,1-.17,1.39l-9.07,5.23A2.67,2.67,0,0,1,187.79,222.37Z" transform="translate(-10.54 -1.66)"/><path class="cls-2" d="M262.51,265.5l-12.28-7.09c-.62-.36-.54-1,.17-1.39l9.07-5.23a2.67,2.67,0,0,1,2.41-.1l12.28,7.09c.62.36.54,1-.17,1.39l-9.07,5.23A2.67,2.67,0,0,1,262.51,265.5Z" transform="translate(-10.54 -1.66)"/><path class="cls-2" d="M204.91,232.25l-12.28-7.09c-.62-.36-.54-1,.17-1.39l9.07-5.23a2.67,2.67,0,0,1,2.41-.1l12.28,7.09c.62.36.54,1-.17,1.39l-9.07,5.23A2.67,2.67,0,0,1,204.91,232.25Z" transform="translate(-10.54 -1.66)"/><path class="cls-2" d="M204.35,218.48l53.41,30.84a.73.73,0,0,1,0,1.39L248.51,256a2.65,2.65,0,0,1-2.4,0l-53.41-30.84Z" transform="translate(-10.54 -1.66)"/><path class="cls-2" d="M307.09,284.52l8.56,4.94c.51.29.44.8-.14,1.14l-3.71,2.14a2.19,2.19,0,0,1-2,.08l-8.56-4.94c-.51-.29-.44-.8.14-1.14l3.71-2.14A2.19,2.19,0,0,1,307.09,284.52Z" transform="translate(-10.54 -1.66)"/><path class="cls-2" d="M295.13,277.61l8.56,4.94c.51.29.44.8-.14,1.14l-3.71,2.14a2.19,2.19,0,0,1-2,.08L289.3,281c-.51-.29-.44-.8.14-1.14l3.71-2.14A2.19,2.19,0,0,1,295.13,277.61Z" transform="translate(-10.54 -1.66)"/><path class="cls-2" d="M283.26,270.77l8.56,4.94c.51.29.44.8-.14,1.14L288,279a2.19,2.19,0,0,1-2,.08l-8.56-4.94c-.51-.29-.44-.8.14-1.14l3.71-2.14A2.19,2.19,0,0,1,283.26,270.77Z" transform="translate(-10.54 -1.66)"/><path class="cls-2" d="M301.68,273.83l8.56,4.94c.51.29.44.8-.14,1.14l-3.71,2.14a2.19,2.19,0,0,1-2,.08l-8.56-4.94c-.51-.29-.44-.8.14-1.14l3.71-2.14A2.19,2.19,0,0,1,301.68,273.83Z" transform="translate(-10.54 -1.66)"/><path class="cls-8" d="M130.91,164.46s.57,11.76,1.47,19.66S152.3,178,152.3,178v-9Z" transform="translate(-10.54 -1.66)"/><path class="cls-2" d="M141,310.74c.29.71,5.22,6.72,10.15,8.22a11.34,11.34,0,0,0,4.53.63,1.49,1.49,0,0,0,1.21-2,18.73,18.73,0,0,0-9.46-10.43C139.12,303,141,310.74,141,310.74Z" transform="translate(-10.54 -1.66)"/><path class="cls-2" d="M139.4,313a40.81,40.81,0,0,1,2.43,8c.35,2.22-.87,5.11-1.88,7a2.05,2.05,0,0,1-3.2.55,11.86,11.86,0,0,1-4-7.65c-.57-6.15,0-7.22,0-7.22Z" transform="translate(-10.54 -1.66)"/><path class="cls-9" d="M127.53,238.77a116.86,116.86,0,0,0,0,16.33c.64,8.57,2.95,48.68,3.37,58.32,0,0-.21,2.92,5.44,2.28s5.2-3.89,5.2-3.89,7.94-.11,8.19-4.79,8.13-55.89,8.13-74.3Z" transform="translate(-10.54 -1.66)"/><path class="cls-10" d="M160.8,198.69l3.89,6,13.37,16.15a3,3,0,0,1-2.12,1.89c-1.3.31-12.55-10.42-17.41-15.13a3.73,3.73,0,0,1-.51-4.74Z" transform="translate(-10.54 -1.66)"/><path class="cls-11" d="M153.21,174s6.18-.16,8.33,8.77,3.83,20.11,2,21c-5.62,2.79-9.17-.47-9.17-.47Z" transform="translate(-10.54 -1.66)"/><path class="cls-12" d="M155.06,174.33a5.06,5.06,0,0,0-3.34-.18c-5.27,1.51-25.06,7.32-28.32,10.11-3.77,3.22,5.65,21.33,5.52,27.26s-.81,12.93-1.33,19.39-1.23,10,4,12.73,14.29,2.87,21-2.27,5.52-8.66,5.24-12.39-2.58-19.87-2.38-24.45a17.33,17.33,0,0,0,4.14-4.75c1.76-3-1.35-8.52-2.64-12.11s.73-7.69.33-10.62A3.32,3.32,0,0,0,155.06,174.33Z" transform="translate(-10.54 -1.66)"/><ellipse class="cls-6" cx="141.29" cy="181.46" rx="7.5" ry="5.95" transform="matrix(0.99, -0.13, 0.13, 0.99, -32.45, 17.76)"/><ellipse class="cls-10" cx="141.29" cy="181.46" rx="5.36" ry="4.25" transform="translate(-32.45 17.76) rotate(-7.3)"/><path class="cls-10" d="M143.69,173.13s-3.57-2.94-4.28-1.45-1.28,7.88-1.28,7.88l7.1,1.91L144.16,175S145.58,173.78,143.69,173.13Z" transform="translate(-10.54 -1.66)"/><circle class="cls-10" cx="144.21" cy="165.5" r="10.6" transform="translate(-40.05 298.03) rotate(-86.62)"/><path class="cls-13" d="M138.92,173.53c-.06.33-.12.69-.18,1.06.71,3.69,6.23,5.3,6.23,5.3l-.81-4.9s.67-.57.48-1.14C142.45,173.16,139.71,172.55,138.92,173.53Z" transform="translate(-10.54 -1.66)"/><circle class="cls-10" cx="144.21" cy="165.5" r="10.6" transform="translate(-40.05 298.03) rotate(-86.62)"/><polygon class="cls-10" points="107.56 208.69 108.74 237.05 112.89 237.47 115.59 211.95 107.56 208.69"/><path class="cls-11" d="M131.72,208c-1.37-6.05-4.08-19.43-4.08-19.43l-1.16,13.31c1.34,3.95,2.48,7.57,2.44,9.67-.08,3.48-.34,7.34-.65,11.23h0S133.09,214,131.72,208Z" transform="translate(-10.54 -1.66)"/><path class="cls-14" d="M124.19,183.68s-3.31,1.27-5.19,11.45-3.28,20.38.07,21.7,6.14,2.3,7.12-.42,1.59-15.85,1.72-20.56S128.21,184.61,124.19,183.68Z" transform="translate(-10.54 -1.66)"/><path class="cls-10" d="M177.07,219.69a8.9,8.9,0,0,1,3.09,2.07,20.17,20.17,0,0,1,2.11,2.84c1,1.54,1.9,4.87,1.27,5.28s-4.23-5.57-4.81-4.18,0,2.68-.74,2.7-3.33-6-5.37-7.89S177.07,219.69,177.07,219.69Z" transform="translate(-10.54 -1.66)"/><path class="cls-15" d="M141.54,311.81a16.27,16.27,0,0,0,2.27-.24h0l1.55-62.34Z" transform="translate(-10.54 -1.66)"/><path class="cls-12" d="M135.54,278.14l-2.21-2.88-23.2-13.43a3.23,3.23,0,0,1-1.34-2.58l0-19-1.33-1.74,1.25-.73h0a.85.85,0,0,1,.91.05l26.29,15.22a3.23,3.23,0,0,1,1.34,2.58l0,20.68a1.17,1.17,0,0,1-.49,1.1h0Z" transform="translate(-10.54 -1.66)"/><path class="cls-16" d="M119.5,267.25l-1.65-1-9-15.71V240.26l-1.33-1.74,1.25-.73h0a.85.85,0,0,1,.91.05l26.29,15.22a2.72,2.72,0,0,1,1,1.16Z" transform="translate(-10.54 -1.66)"/><path class="cls-16" d="M108.07,239.29l-.59-.77,1.25-.73h0a.85.85,0,0,1,.91.05l.46.27Z" transform="translate(-10.54 -1.66)"/><path class="cls-12" d="M136.17,253.24a3.37,3.37,0,0,1,1.1,2.21l-2.57,1.48-1.23-2.14Z" transform="translate(-10.54 -1.66)"/><path class="cls-14" d="M134.68,253.8l-26.29-15.22c-.74-.43-1.35,0-1.35,1l0,20.68a3.23,3.23,0,0,0,1.34,2.58l26.29,15.22c.74.43,1.35,0,1.35-1l0-20.68A3.23,3.23,0,0,0,134.68,253.8Z" transform="translate(-10.54 -1.66)"/><path class="cls-10" d="M119.32,238.47s-1.1,6.62-.93,8.74,1.3,5.62,2.16,5.54,0-8.52,1.54-7.68,1.67,2.29,2.36,1.78-1.19-7.73-.69-10.87S119.32,238.47,119.32,238.47Z" transform="translate(-10.54 -1.66)"/><path class="cls-13" d="M148.27,166.43c5.32,1.89,6.35.74,6.4.67,0-.32.09-.64.11-1a10.57,10.57,0,0,0-.35-3.39l-13.79-1.86A15,15,0,0,0,148.27,166.43Z" transform="translate(-10.54 -1.66)"/><path class="cls-8" d="M155.16,155.57c-1.25-1.07-5.77-6.38-13.87-5.13-5.06.78-9.33,4.24-10.27,12.11a18.1,18.1,0,0,0,4.9,14.4,4.34,4.34,0,0,0,.58-.29c2-1.33,2.25-2.07,2.25-2.08l.45-4a1.12,1.12,0,0,0-1-1.11,2,2,0,0,1-1.48-.9c-1.16-1.52-.63-3.89,1.7-4a1.78,1.78,0,0,0,1.86-1.32,1,1,0,0,1,1.24-.65c2.65,1,9.17,3,13.37,1.83C160.23,162.91,156.42,156.64,155.16,155.57Z" transform="translate(-10.54 -1.66)"/><path class="cls-6" d="M149.13,171.21l3.24-.89a7.82,7.82,0,0,1-3.81,3.05c-2.26.62-2.61-1.29-2.61-1.29Z" transform="translate(-10.54 -1.66)"/><polygon class="cls-16" points="114.29 244.98 111.53 243.4 112.56 245.09 113.96 245.61 114.29 244.98"/><path class="cls-2" d="M199.13,333.8s-3.48-1.76-5.62.86-5.2,8.79-5.29,13,3.3,3.89,5.32,2.9,7.92-9.55,8.28-11.22a5.82,5.82,0,0,0-1-4.39C200.26,334.48,199.13,333.8,199.13,333.8Z" transform="translate(-10.54 -1.66)"/><path class="cls-17" d="M199.89,333l.16,3.61a2,2,0,0,1-1,1.88,4,4,0,0,1-2.69.42c-2.62-.42-2.86-1.17-3-4.78S199.89,333,199.89,333Z" transform="translate(-10.54 -1.66)"/><path class="cls-2" d="M186.38,326.86s-3.48-1.76-5.62.86-5.2,8.79-5.29,13,3.3,3.89,5.32,2.9,7.92-9.55,8.28-11.22a5.82,5.82,0,0,0-1-4.39C187.5,327.54,186.38,326.86,186.38,326.86Z" transform="translate(-10.54 -1.66)"/><path class="cls-17" d="M187.14,326l.16,3.61a2,2,0,0,1-1,1.88,4,4,0,0,1-2.69.42c-2.62-.42-2.86-1.17-3-4.78S187.14,326,187.14,326Z" transform="translate(-10.54 -1.66)"/><path class="cls-9" d="M218.23,259.75c-1-16.78-18.17,2.47-18.17,2.47l-11.73,11.5-10.56,11.6a10.41,10.41,0,0,0-2.62,8.36l4.27,32.54a3.2,3.2,0,0,0,3.21,2.78,10.89,10.89,0,0,0,1.58-.14,4,4,0,0,0,3.53-4.22L187,294.22l22.18-13.37S219.26,276.53,218.23,259.75Z" transform="translate(-10.54 -1.66)"/><path class="cls-9" d="M231,266.14c-1-16.78-18.17,2.47-18.17,2.47l-11.73,11.5-10.56,11.6a10.41,10.41,0,0,0-2.62,8.36l4.27,32.54a3.2,3.2,0,0,0,3.21,2.78,10.87,10.87,0,0,0,1.58-.14,4,4,0,0,0,3.53-4.22l-.78-30.43,22.18-13.37S232,282.92,231,266.14Z" transform="translate(-10.54 -1.66)"/><path class="cls-12" d="M220.84,212.28c13,5.39,12.73,13.07,12.73,13.07s-2.55,28.16-1.68,47c.36,7.86-41.77,8.46-35.49-12.51,7.41-24.73,4.63-44.75,8.1-47.77S217.48,210.89,220.84,212.28Z" transform="translate(-10.54 -1.66)"/><ellipse class="cls-10" cx="218.53" cy="217.42" rx="4.93" ry="6.7" transform="translate(-57.07 373.15) rotate(-75.56)"/><path class="cls-6" d="M219.49,223.1a9.43,9.43,0,0,1-2.35-.3c-3.91-1-6.47-4.24-5.71-7.21a5,5,0,0,1,3.14-3.31,8.64,8.64,0,0,1,5.34-.24c3.91,1,6.47,4.24,5.71,7.21h0C225,221.61,222.48,223.1,219.49,223.1Zm-2-10.12a6.7,6.7,0,0,0-2.5.46,3.76,3.76,0,0,0-2.4,2.47c-.59,2.3,1.57,4.86,4.81,5.69s6.37-.36,7-2.66-1.57-4.85-4.81-5.69A8.27,8.27,0,0,0,217.54,213Z" transform="translate(-10.54 -1.66)"/><path class="cls-10" d="M215.63,211.7a32,32,0,0,1-.11,4.64c-.07,1.29,4.46,2.5,5.63,1.33s.7-2.39,1-6.8S215.63,211.7,215.63,211.7Z" transform="translate(-10.54 -1.66)"/><path class="cls-13" d="M222.14,210.87s-1.12,4.08-6.62,5.65l.08-3.71Z" transform="translate(-10.54 -1.66)"/><circle class="cls-10" cx="215.94" cy="203" r="10" transform="translate(-54.48 58.85) rotate(-14.5)"/><path class="cls-13" d="M218.24,203.36s-5.51,2.36-9.32,2.39-3-3.17-3-3.17l11.32-1.64Z" transform="translate(-10.54 -1.66)"/><path class="cls-18" d="M207.78,204s4.8-2,9-1.19a4.41,4.41,0,0,1,2.54,1.51,1.5,1.5,0,0,0,.77.56c.75.17,2-2.93,3.42-3s2.42,1,1.23,2.86-.79,4-.24,4.34,6.35-4.14,1.23-14.28-18.13-4.68-20.15-2.62c0,0-2.13,1.86-3.86.2C201.72,192.37,199.78,206.92,207.78,204Z" transform="translate(-10.54 -1.66)"/><path class="cls-10" d="M226.29,245.93v7.61a3.1,3.1,0,0,1-1,2.29l-15.63,14.25,1.78,2.72L232,258.67a4.2,4.2,0,0,0,1.71-3l1.48-14.12Z" transform="translate(-10.54 -1.66)"/><path class="cls-12" d="M232.48,221.55s4.74,7.13,6.51,25.9c0,0-8.1,2.62-12.7,1.13S232.48,221.55,232.48,221.55Z" transform="translate(-10.54 -1.66)"/><path class="cls-8" d="M225.42,230.57s-1.86,9.94-2,14.61a3,3,0,0,0,2,2.88h0Z" transform="translate(-10.54 -1.66)"/><path class="cls-2" d="M221.36,280l-3.45-.46-22.3-12.88a3.1,3.1,0,0,0-2.79.12L177,275.88l-2.09-.28v2.08h0a.81.81,0,0,0,.48.73L200.68,293a3.1,3.1,0,0,0,2.79-.12L220.68,283a1.13,1.13,0,0,0,.68-.94h0Z" transform="translate(-10.54 -1.66)"/><path class="cls-3" d="M204.61,271.84l-1.58-.91H185.6l-8.59,5-2.09-.28v2.08h0a.81.81,0,0,0,.48.73L200.68,293a2.62,2.62,0,0,0,1.44.27Z" transform="translate(-10.54 -1.66)"/><path class="cls-7" d="M175.85,275.72l-.93-.12v2.08h0a.81.81,0,0,0,.48.73l.45.26Z" transform="translate(-10.54 -1.66)"/><path class="cls-4" d="M200.94,293.12a3.24,3.24,0,0,0,2.37-.15v-3.54h-2.37Z" transform="translate(-10.54 -1.66)"/><path class="cls-6" d="M200.68,290.93l-25.27-14.59c-.72-.41-.63-1.13.2-1.61l17.21-9.93a3.1,3.1,0,0,1,2.79-.12l25.27,14.59c.72.41.63,1.13-.2,1.61l-17.21,9.93A3.1,3.1,0,0,1,200.68,290.93Z" transform="translate(-10.54 -1.66)"/><path class="cls-5" d="M200.25,288.72l-21-12.13c-.59-.34-.52-.94.17-1.34l9.22-5.19a2.58,2.58,0,0,1,2.32-.1l21,12.13c.59.34.52.94-.17,1.34l-9.22,5.19A2.58,2.58,0,0,1,200.25,288.72Z" transform="translate(-10.54 -1.66)"/><path class="cls-10" d="M193.8,264.31l-.26,1.74a12.9,12.9,0,0,0,.11,4.47l.31,1.54a2.16,2.16,0,0,0,1.73,1.7h0a1.19,1.19,0,0,0,1.4-1l.42-3.73s1,1.25,1.41,1.25-.52-3.73-1.56-5.85S193.8,264.31,193.8,264.31Z" transform="translate(-10.54 -1.66)"/><path class="cls-10" d="M202.36,236.59,199.65,242a10.53,10.53,0,0,0-1.11,4.07l-1.18,18.36-3.57-.08-1.62-20.62a7.54,7.54,0,0,1,.09-1.91l1.85-10.46Z" transform="translate(-10.54 -1.66)"/><path class="cls-2" d="M199.83,292.33l-2.12-2.77-22.29-12.9a3.1,3.1,0,0,1-1.29-2.48l0-18.25-1.28-1.67,1.2-.7h0a.81.81,0,0,1,.87.05l25.26,14.62a3.1,3.1,0,0,1,1.29,2.48l0,19.87a1.13,1.13,0,0,1-.47,1.06h0Z" transform="translate(-10.54 -1.66)"/><path class="cls-3" d="M184.41,281.87l-1.58-.92-8.69-15.1v-9.91l-1.28-1.67,1.2-.7h0a.81.81,0,0,1,.87.05l25.26,14.62a2.61,2.61,0,0,1,1,1.11Z" transform="translate(-10.54 -1.66)"/><path class="cls-7" d="M173.44,255l-.57-.74,1.2-.7h0a.81.81,0,0,1,.87.05l.45.26Z" transform="translate(-10.54 -1.66)"/><path class="cls-4" d="M200.43,268.4a3.24,3.24,0,0,1,1.05,2.13L199,272l-1.18-2.05Z" transform="translate(-10.54 -1.66)"/><path class="cls-6" d="M199,268.94l-25.26-14.62c-.71-.41-1.29,0-1.3,1l0,19.87a3.1,3.1,0,0,0,1.29,2.48L199,292.26c.71.41,1.29,0,1.3-1l0-19.87A3.1,3.1,0,0,0,199,268.94Z" transform="translate(-10.54 -1.66)"/><path class="cls-10" d="M211.42,272.79l-.4.84A5.62,5.62,0,0,1,208.9,276l-2.51,1.55a2.5,2.5,0,0,1-2.56.06l-.09-.05a1.51,1.51,0,0,1-.21-2.32l2.62-2.7s-1.47,1.13-1.89.67,1.43-2,2.76-2a5.25,5.25,0,0,0,2.61-1.1Z" transform="translate(-10.54 -1.66)"/><path class="cls-12" d="M204.77,212s-9.61,10.46-13.49,20.05a19.62,19.62,0,0,0,11.33,8.24C210.66,242.61,204.77,212,204.77,212Z" transform="translate(-10.54 -1.66)"/><path class="cls-8" d="M200.81,239.67l1.56-15-3.67,14.1A21,21,0,0,0,200.81,239.67Z" transform="translate(-10.54 -1.66)"/><path class="cls-6" d="M212,209.89l-2.58-.71a6.23,6.23,0,0,0,3,2.43c1.8.49,2.08-1,2.08-1Z" transform="translate(-10.54 -1.66)"/><path class="cls-1" d="M42.32,346.16,19,332.61c-2-1.13-1.72-3.12.55-4.43l22.2-12.93c2.27-1.31,5.7-1.45,7.67-.32l23.29,13.55c2,1.13,1.72,3.12-.55,4.43L50,345.84C47.72,347.15,44.28,347.29,42.32,346.16Z" transform="translate(-10.54 -1.66)"/><path class="cls-2" d="M81.21,303.08h0v-5.85l-31.07,0h.21c-2.46-1.42-6.77-1.24-9.62.4l.92-.38-31.1,0v6.25A2.79,2.79,0,0,0,12.2,306l29.21,17c2.46,1.42,6.77,1.24,9.62-.4L78.87,306.4C80.51,305.46,81.3,304.23,81.21,303.08Z" transform="translate(-10.54 -1.66)"/><path class="cls-3" d="M45.89,296.26a11.09,11.09,0,0,0-5.15,1.35l.92-.38-31.1,0v6.25A2.79,2.79,0,0,0,12.2,306l29.21,17a8.7,8.7,0,0,0,4.46,1Z" transform="translate(-10.54 -1.66)"/><path class="cls-1" d="M14.07,297.21H10.55v6.25A2.79,2.79,0,0,0,12.2,306l1.87,1.08Z" transform="translate(-10.54 -1.66)"/><path class="cls-4" d="M42,323.32a11,11,0,0,0,7.69-.09v-8.18H42Z" transform="translate(-10.54 -1.66)"/><path class="cls-5" d="M41.41,316.83l-29.21-17c-2.46-1.42-2.16-3.91.69-5.55l27.84-16.22c2.85-1.64,7.15-1.82,9.62-.4l29.21,17c2.46,1.42,2.16,3.91-.69,5.55L51,316.43C48.18,318.07,43.88,318.25,41.41,316.83Z" transform="translate(-10.54 -1.66)"/><path class="cls-6" d="M47.07,294l-8.59-5a1.27,1.27,0,0,1,0-2.4,4.6,4.6,0,0,1,4.16,0l8.59,5a1.27,1.27,0,0,1,0,2.4A4.6,4.6,0,0,1,47.07,294Z" transform="translate(-10.54 -1.66)"/><path class="cls-6" d="M59.56,301.32l-5.21-3.08a1.27,1.27,0,0,1,0-2.4,4.6,4.6,0,0,1,4.16,0l5.21,3.08a1.27,1.27,0,0,1,0,2.4A4.6,4.6,0,0,1,59.56,301.32Z" transform="translate(-10.54 -1.66)"/><path class="cls-6" d="M35,297.09,29.82,294a1.27,1.27,0,0,1,0-2.4,4.6,4.6,0,0,1,4.16,0l5.21,3.08a1.27,1.27,0,0,1,0,2.4A4.6,4.6,0,0,1,35,297.09Z" transform="translate(-10.54 -1.66)"/><path class="cls-5" d="M286.1,69.7l-10.31-6a3,3,0,0,1-1.26-3.05h0a1.43,1.43,0,0,1,2.21-1.05l10.31,6a3,3,0,0,1,1.26,3.05h0A1.43,1.43,0,0,1,286.1,69.7Z" transform="translate(-10.54 -1.66)"/><path class="cls-5" d="M310.66,83.89l-15.2-8.78a3,3,0,0,1-1.26-3.05h0A1.43,1.43,0,0,1,296.41,71l15.2,8.78a3,3,0,0,1,1.26,3.05h0A1.43,1.43,0,0,1,310.66,83.89Z" transform="translate(-10.54 -1.66)"/><path class="cls-5" d="M268.12,117.84l-10.31-6a3,3,0,0,1-1.26-3.05h0a1.43,1.43,0,0,1,2.21-1.05l10.31,6a3,3,0,0,1,1.26,3.05h0A1.43,1.43,0,0,1,268.12,117.84Z" transform="translate(-10.54 -1.66)"/><path class="cls-5" d="M290,130.48l-15.2-8.78a3,3,0,0,1-1.26-3.05h0a1.43,1.43,0,0,1,2.21-1.05l15.2,8.78a3,3,0,0,1,1.26,3.05h0A1.43,1.43,0,0,1,290,130.48Z" transform="translate(-10.54 -1.66)"/><path class="cls-5" d="M255.68,61.89l-6.44-3.72A3,3,0,0,1,248,55.12h0a1.43,1.43,0,0,1,2.21-1.05l6.44,3.72a3,3,0,0,1,1.26,3.05h0A1.43,1.43,0,0,1,255.68,61.89Z" transform="translate(-10.54 -1.66)"/><path class="cls-5" d="M275.53,83.11,255.85,71.74a3,3,0,0,1-1.26-3.05h0a1.43,1.43,0,0,1,2.21-1.05L276.48,79a3,3,0,0,1,1.26,3.05h0A1.43,1.43,0,0,1,275.53,83.11Z" transform="translate(-10.54 -1.66)"/><path class="cls-5" d="M258.32,92.67,251.88,89a3,3,0,0,1-1.26-3.05h0a1.43,1.43,0,0,1,2.21-1.05l6.44,3.72a3,3,0,0,1,1.26,3.05h0A1.43,1.43,0,0,1,258.32,92.67Z" transform="translate(-10.54 -1.66)"/><path class="cls-5" d="M293.33,151.9,276.13,142a3,3,0,0,1-1.26-3.05h0a1.43,1.43,0,0,1,2.21-1.05l17.21,9.93a3,3,0,0,1,1.26,3.05h0A1.43,1.43,0,0,1,293.33,151.9Z" transform="translate(-10.54 -1.66)"/><path class="cls-5" d="M252,108.55l-4.13-2.39a3,3,0,0,1-1.26-3.05h0a1.44,1.44,0,0,1,2.21-1.05l4.13,2.39a3,3,0,0,1,1.26,3.05h0A1.43,1.43,0,0,1,252,108.55Z" transform="translate(-10.54 -1.66)"/><path class="cls-5" d="M249.07,126.34l-5.13-3a3,3,0,0,1-1.26-3.05h0a1.43,1.43,0,0,1,2.21-1.05l5.13,3a3,3,0,0,1,1.26,3.05h0A1.43,1.43,0,0,1,249.07,126.34Z" transform="translate(-10.54 -1.66)"/><path class="cls-5" d="M269,137.87l-13.54-7.82a3,3,0,0,1-1.26-3.05h0a1.43,1.43,0,0,1,2.21-1.05L270,133.77a3,3,0,0,1,1.26,3.05h0A1.43,1.43,0,0,1,269,137.87Z" transform="translate(-10.54 -1.66)"/><path class="cls-5" d="M251.68,137.6,241.95,132a3,3,0,0,1-1.26-3.05h0a1.43,1.43,0,0,1,2.21-1.05l9.73,5.62a3,3,0,0,1,1.26,3.05h0A1.43,1.43,0,0,1,251.68,137.6Z" transform="translate(-10.54 -1.66)"/><path class="cls-5" d="M308.1,160.46l-6.25-3.61a3,3,0,0,1-1.26-3.05h0a1.43,1.43,0,0,1,2.21-1.05l6.25,3.61a3,3,0,0,1,1.26,3.05h0A1.43,1.43,0,0,1,308.1,160.46Z" transform="translate(-10.54 -1.66)"/><path class="cls-5" d="M282.28,106.51l-17.21-9.93a3,3,0,0,1-1.26-3.05h0A1.43,1.43,0,0,1,266,92.47l17.21,9.93a3,3,0,0,1,1.26,3.05h0A1.43,1.43,0,0,1,282.28,106.51Z" transform="translate(-10.54 -1.66)"/><path class="cls-5" d="M283.85,97.66l-30-17.31a3,3,0,0,1-1.26-3.05h0a1.44,1.44,0,0,1,2.21-1.05l30,17.31a3,3,0,0,1,1.26,3.05h0A1.43,1.43,0,0,1,283.85,97.66Z" transform="translate(-10.54 -1.66)"/><path class="cls-5" d="M267.1,107.49l-17.21-9.93a3,3,0,0,1-1.26-3.05h0a1.43,1.43,0,0,1,2.21-1.05L268,103.39a3,3,0,0,1,1.26,3.05h0A1.43,1.43,0,0,1,267.1,107.49Z" transform="translate(-10.54 -1.66)"/><path class="cls-5" d="M295.33,114l-6.25-3.61a3,3,0,0,1-1.26-3.05h0a1.43,1.43,0,0,1,2.21-1.05l6.25,3.61a3,3,0,0,1,1.26,3.05h0A1.43,1.43,0,0,1,295.33,114Z" transform="translate(-10.54 -1.66)"/><path class="cls-5" d="M357,110.66,320,89.29a3,3,0,0,1-1.26-3.05h0A1.43,1.43,0,0,1,321,85.18l37,21.37a3,3,0,0,1,1.26,3.05h0A1.43,1.43,0,0,1,357,110.66Z" transform="translate(-10.54 -1.66)"/><path class="cls-5" d="M266.6,126.71l-20.68-11.94a3,3,0,0,1-1.26-3.05h0a1.43,1.43,0,0,1,2.21-1.05l20.68,11.94a3,3,0,0,1,1.26,3.05h0A1.43,1.43,0,0,1,266.6,126.71Z" transform="translate(-10.54 -1.66)"/><path class="cls-5" d="M266.43,58.35l-15.2-8.78A3,3,0,0,1,250,46.52h0a1.43,1.43,0,0,1,2.21-1.05l15.2,8.78a3,3,0,0,1,1.26,3.05h0A1.43,1.43,0,0,1,266.43,58.35Z" transform="translate(-10.54 -1.66)"/><path class="cls-5" d="M249,145.79l-17.61-10.17a3,3,0,0,1-1.26-3.05h0a1.43,1.43,0,0,1,2.21-1.05l17.61,10.17a3,3,0,0,1,1.26,3.05h0A1.43,1.43,0,0,1,249,145.79Z" transform="translate(-10.54 -1.66)"/><path class="cls-5" d="M367.19,211.74l-10.31-6a3,3,0,0,1-1.26-3.05h0a1.43,1.43,0,0,1,2.21-1.05l10.31,6a3,3,0,0,1,1.26,3.05h0A1.43,1.43,0,0,1,367.19,211.74Z" transform="translate(-10.54 -1.66)"/><path class="cls-5" d="M374.6,177l-19.68-11.36a3,3,0,0,1-1.26-3.05h0a1.43,1.43,0,0,1,2.21-1.05l19.68,11.36a3,3,0,0,1,1.26,3.05h0A1.43,1.43,0,0,1,374.6,177Z" transform="translate(-10.54 -1.66)"/><path class="cls-5" d="M357.39,186.58l-6.44-3.72a3,3,0,0,1-1.26-3.05h0a1.43,1.43,0,0,1,2.21-1.05l6.44,3.72a3,3,0,0,1,1.26,3.05h0A1.43,1.43,0,0,1,357.39,186.58Z" transform="translate(-10.54 -1.66)"/><path class="cls-5" d="M351.11,202.46,347,200.07a3,3,0,0,1-1.26-3.05h0a1.43,1.43,0,0,1,2.21-1.05l4.13,2.39a3,3,0,0,1,1.26,3.05h0A1.43,1.43,0,0,1,351.11,202.46Z" transform="translate(-10.54 -1.66)"/><path class="cls-5" d="M381.35,200.41l-17.21-9.93a3,3,0,0,1-1.26-3.05h0a1.43,1.43,0,0,1,2.21-1.05l17.21,9.93a3,3,0,0,1,1.26,3.05h0A1.43,1.43,0,0,1,381.35,200.41Z" transform="translate(-10.54 -1.66)"/><path class="cls-5" d="M382.92,191.57l-30-17.31a3,3,0,0,1-1.26-3.05h0a1.43,1.43,0,0,1,2.21-1.05l30,17.31a3,3,0,0,1,1.26,3.05h0A1.43,1.43,0,0,1,382.92,191.57Z" transform="translate(-10.54 -1.66)"/><path class="cls-5" d="M366.16,201.4,349,191.47a3,3,0,0,1-1.26-3.05h0a1.43,1.43,0,0,1,2.21-1.05l17.21,9.93a3,3,0,0,1,1.26,3.05h0A1.43,1.43,0,0,1,366.16,201.4Z" transform="translate(-10.54 -1.66)"/><path class="cls-5" d="M365.67,220.62,345,208.68a3,3,0,0,1-1.26-3.05h0a1.43,1.43,0,0,1,2.21-1.05l20.68,11.94a3,3,0,0,1,1.26,3.05h0A1.43,1.43,0,0,1,365.67,220.62Z" transform="translate(-10.54 -1.66)"/><path class="cls-1" d="M325,399.2l-24.22-14.09c-2-1.18-1.79-3.24.57-4.6l23.09-13.45c2.36-1.36,5.93-1.51,8-.33l24.22,14.09c2,1.18,1.79,3.24-.57,4.6L333,398.87C330.66,400.24,327.09,400.38,325,399.2Z" transform="translate(-10.54 -1.66)"/><path class="cls-19" d="M364.08,355.51h0v-5.85l-31.07,0h.21c-2.46-1.42-6.77-1.24-9.62.4l.92-.38-31.1,0v6.25a2.79,2.79,0,0,0,1.65,2.58l29.21,17c2.46,1.42,6.77,1.24,9.62-.4l27.84-16.22C363.38,357.88,364.18,356.65,364.08,355.51Z" transform="translate(-10.54 -1.66)"/><path class="cls-12" d="M328.76,348.68a11.09,11.09,0,0,0-5.15,1.35l.92-.38-31.1,0v6.25a2.79,2.79,0,0,0,1.65,2.58l29.21,17a8.7,8.7,0,0,0,4.46,1Z" transform="translate(-10.54 -1.66)"/><path class="cls-14" d="M296.95,349.63h-3.52v6.25a2.79,2.79,0,0,0,1.65,2.58l1.87,1.08Z" transform="translate(-10.54 -1.66)"/><path class="cls-20" d="M324.91,375.75a11,11,0,0,0,7.69-.09v-8.18h-7.69Z" transform="translate(-10.54 -1.66)"/><path class="cls-11" d="M324.29,369.25l-29.21-17c-2.46-1.42-2.16-3.91.69-5.55l27.84-16.22c2.85-1.64,7.15-1.82,9.62-.4l29.21,17c2.46,1.42,2.16,3.91-.69,5.55L333.9,368.85C331.06,370.49,326.75,370.67,324.29,369.25Z" transform="translate(-10.54 -1.66)"/><path class="cls-14" d="M329.73,347.33l-8.59-5a1.27,1.27,0,0,1,0-2.4,4.59,4.59,0,0,1,4.16,0l8.59,5a1.27,1.27,0,0,1,0,2.4A4.6,4.6,0,0,1,329.73,347.33Z" transform="translate(-10.54 -1.66)"/><path class="cls-14" d="M342.21,354.63,337,351.55a1.27,1.27,0,0,1,0-2.4,4.59,4.59,0,0,1,4.16,0l5.21,3.08a1.27,1.27,0,0,1,0,2.4A4.59,4.59,0,0,1,342.21,354.63Z" transform="translate(-10.54 -1.66)"/><path class="cls-14" d="M317.69,350.4l-5.21-3.08a1.27,1.27,0,0,1,0-2.4,4.6,4.6,0,0,1,4.16,0l5.21,3.08a1.27,1.27,0,0,1,0,2.4A4.6,4.6,0,0,1,317.69,350.4Z" transform="translate(-10.54 -1.66)"/></svg>